<svg xmlns="http://www.w3.org/2000/svg" xmlns:xlink="http://www.w3.org/1999/xlink" width="98" height="98" viewBox="0 0 98 98"><defs><style>.cls-1{fill:url(#radial-gradient);}.cls-2{mask:url(#mask);}.cls-3{opacity:0.1;}.cls-4,.cls-5{fill:none;stroke-width:2px;}.cls-4{stroke:#111827;}.cls-5{stroke:#4f46e5;stroke-linecap:round;}.cls-6,.cls-7{fill:#4f46e5;}.cls-7{font-size:25px;font-family:NexaBold, Nexa Bold;}</style><radialGradient id="radial-gradient" cx="-197.09" cy="301.65" r="1" gradientTransform="matrix(0, 69, 72.92, 0, -21947.2, 13647)" gradientUnits="userSpaceOnUse"><stop offset="0.23" stop-color="#c4c4c4"/><stop offset="0.72" stop-color="#c4c4c4" stop-opacity="0"/></radialGradient><mask id="mask" x="-3" y="0" width="104" height="98" maskUnits="userSpaceOnUse"><g id="mask0"><rect class="cls-1" x="-3" y="4" width="104" height="88"/></g></mask></defs><g id="Layer_2" data-name="Layer 2"><g id="Layer_1-2" data-name="Layer 1"><g class="cls-2"><g class="cls-3"><circle class="cls-4" cx="49" cy="49" r="40"/></g><g class="cls-3"><circle class="cls-4" cx="49" cy="49" r="48"/></g><g class="cls-3"><circle class="cls-4" cx="49" cy="49" r="32"/></g><g class="cls-3"><circle class="cls-4" cx="49" cy="49" r="24"/></g></g><path class="cls-5" d="M80.15,75a32.1,32.1,0,0,1-13,9"/><path class="cls-6" d="M73.78,74.83l6.69-1.49a1,1,0,0,1,1.19,1.19l-1.49,6.69a1,1,0,0,1-1.68.49l-5.2-5.2A1,1,0,0,1,73.78,74.83Z"/><path class="cls-5" d="M23,20a32.1,32.1,0,0,1,13-9"/><path class="cls-6" d="M29.38,20.17l-6.69,1.49a1,1,0,0,1-1.19-1.19L23,13.78a1,1,0,0,1,1.68-.49l5.2,5.2A1,1,0,0,1,29.38,20.17Z"/><text class="cls-7" transform="translate(40.25 57.07)">$</text></g></g></svg>